HIERARCHY
ROOT joint_Root
{
	OFFSET 0.0 0.0 0.0
	CHANNELS 6 Xposition Yposition Zposition Zrotation Xrotation Yrotation 
	JOINT Hips
	{
		OFFSET -17.1583 93.1646 452.98
		CHANNELS 6 Xposition Yposition Zposition Zrotation Xrotation Yrotation 
		JOINT Spine
		{
			OFFSET 15.7357 0.0 0.0
			CHANNELS 6 Xposition Yposition Zposition Zrotation Xrotation Yrotation 
			JOINT Chest
			{
				OFFSET 8.98455 -0.406207 0.0
				CHANNELS 6 Xposition Yposition Zposition Zrotation Xrotation Yrotation 
				JOINT Neck
				{
					OFFSET 16.3773 0.0 0.0
					CHANNELS 6 Xposition Yposition Zposition Zrotation Xrotation Yrotation 
					JOINT Head
					{
						OFFSET 6.45672 0.0 0.0
						CHANNELS 6 Xposition Yposition Zposition Zrotation Xrotation Yrotation 
						End Site
						{
							OFFSET 0.0 0.0 0.0
						}
					}
				}
				JOINT Shoulder_L
				{
					OFFSET 12.9942 -0.242716 4.98039
					CHANNELS 6 Xposition Yposition Zposition Zrotation Xrotation Yrotation 
					JOINT UpperArm_L
					{
						OFFSET 5.34809 0.0 0.0
						CHANNELS 6 Xposition Yposition Zposition Zrotation Xrotation Yrotation 
						JOINT LowerArm_L
						{
							OFFSET 24.3286 1.87007e-05 0.0
							CHANNELS 6 Xposition Yposition Zposition Zrotation Xrotation Yrotation 
							JOINT Hand_L
							{
								OFFSET 22.2916 0.0 0.0
								CHANNELS 6 Xposition Yposition Zposition Zrotation Xrotation Yrotation 
								End Site
								{
									OFFSET 0.0 0.0 0.0
								}
							}
						}
					}
				}
				JOINT Shoulder_R
				{
					OFFSET 12.9945 -0.242716 -4.98039
					CHANNELS 6 Xposition Yposition Zposition Zrotation Xrotation Yrotation 
					JOINT UpperArm_R
					{
						OFFSET -5.34813 0.0 0.0
						CHANNELS 6 Xposition Yposition Zposition Zrotation Xrotation Yrotation 
						JOINT LowerArm_R
						{
							OFFSET -24.3289 0.000322201 0.0
							CHANNELS 6 Xposition Yposition Zposition Zrotation Xrotation Yrotation 
							JOINT Hand_R
							{
								OFFSET -22.2915 -0.000108084 0.0
								CHANNELS 6 Xposition Yposition Zposition Zrotation Xrotation Yrotation 
								End Site
								{
									OFFSET 0.0 0.0 0.0
								}
							}
						}
					}
				}
			}
		}
		JOINT UpperLeg_L
		{
			OFFSET -2.19248 -6.46944 0.0
			CHANNELS 6 Xposition Yposition Zposition Zrotation Xrotation Yrotation 
			JOINT LowerLeg_L
			{
				OFFSET 39.0811 0.0 -1.23785e-05
				CHANNELS 6 Xposition Yposition Zposition Zrotation Xrotation Yrotation 
				JOINT Foot_L
				{
					OFFSET 40.9854 0.0 -1.26872e-05
					CHANNELS 6 Xposition Yposition Zposition Zrotation Xrotation Yrotation 
					JOINT Toes_L
					{
						OFFSET 11.7543 0.0 0.0
						CHANNELS 6 Xposition Yposition Zposition Zrotation Xrotation Yrotation 
						End Site
						{
							OFFSET 0.0 0.0 0.0
						}
					}
				}
			}
		}
		JOINT UpperLeg_R
		{
			OFFSET -2.19251 6.46944 0.0
			CHANNELS 6 Xposition Yposition Zposition Zrotation Xrotation Yrotation 
			JOINT LowerLeg_R
			{
				OFFSET -39.0811 -0.00228153 -0.0401928
				CHANNELS 6 Xposition Yposition Zposition Zrotation Xrotation Yrotation 
				JOINT Foot_R
				{
					OFFSET -40.9854 0.0 0.0
					CHANNELS 6 Xposition Yposition Zposition Zrotation Xrotation Yrotation 
					JOINT Toes_R
					{
						OFFSET -11.7543 0.0 0.0
						CHANNELS 6 Xposition Yposition Zposition Zrotation Xrotation Yrotation 
						End Site
						{
							OFFSET 0.0 0.0 0.0
						}
					}
				}
			}
		}
	}
}
MOTION
Frames:	7
Frame Time:	0.0333333
0.000000 0.000000 0.000000 0.000000 0.000000 -0.000000 0.133734 92.318300 -431.936000 84.947000 -7.222040 -21.988900 15.735700 0.000005 -0.000001 52.657400 85.004400 -49.784600 8.984550 -0.406207 -0.000000 0.345565 -6.244690 5.765190 16.377300 -0.000001 -0.000001 -7.499900 8.461380 -2.912610 6.456720 -0.000001 -0.000000 -2.403410 13.310300 -3.572070 12.994200 -0.242716 4.980390 -91.823300 6.759330 -74.866200 5.348090 -0.000007 -0.000001 -72.111200 -18.229100 -4.610200 24.328600 0.000019 0.000005 48.919200 6.674780 -84.215500 22.291600 -0.000001 0.000005 46.582800 4.125090 22.419800 12.994500 -0.242716 -4.980390 89.910900 0.299107 -73.421400 -5.348130 -0.000001 -0.000004 -60.845800 -16.063100 21.060100 -24.328900 0.000322 -0.000009 0.622049 1.952730 -17.705000 -22.291500 -0.000108 -0.000004 54.049900 5.262250 1.106590 -2.192480 -6.469440 -0.000000 178.748000 -8.170850 -0.931222 39.081100 -0.000007 -0.000012 0.005688 -0.014783 21.047600 40.985400 -0.000006 -0.000013 0.570249 0.808543 -32.316400 11.754300 -0.000000 0.000003 0.001403 0.028469 -15.421900 -2.192510 6.469440 -0.000001 -174.839000 -9.382830 139.230000 -39.081100 -0.002282 -0.040193 0.030343 -0.075936 19.587000 -40.985400 0.000008 0.000006 -12.579800 -10.668900 -77.910000 -11.754300 -0.000006 -0.000006 -0.001172 0.185495 -9.048560
0.000000 0.000000 0.000000 0.000000 0.000000 -0.000000 -0.230595 90.598300 -424.707000 85.214000 -6.408070 -21.148800 15.735700 0.000005 -0.000001 55.752000 85.082300 -52.792000 8.984550 -0.406207 -0.000000 0.523693 -5.720410 5.945760 16.377300 -0.000001 -0.000001 -6.685770 8.052920 -3.215000 6.456720 -0.000001 -0.000000 -2.379180 12.413400 -4.026640 12.994200 -0.242716 4.980390 -92.116900 7.614240 -74.412900 5.348090 -0.000007 -0.000001 -73.694400 -14.030200 -3.194970 24.328600 0.000019 0.000005 54.083000 14.738600 -79.567400 22.291600 -0.000001 0.000005 46.293700 4.219270 21.022000 12.994500 -0.242716 -4.980390 89.539700 1.532750 -73.281500 -5.348130 -0.000001 -0.000004 -62.517600 -14.146100 17.220100 -24.328900 0.000322 -0.000009 0.409488 1.245580 -18.245100 -22.291500 -0.000108 -0.000004 53.687300 5.294140 0.233895 -2.192480 -6.469440 -0.000000 178.807000 -5.571830 -3.871130 39.081100 -0.000007 -0.000012 -0.010863 0.016689 33.063700 40.985400 -0.000006 -0.000013 -1.873960 4.802630 -30.574700 11.754300 -0.000000 0.000003 0.001582 0.033248 -15.228000 -2.192510 6.469440 -0.000001 -173.590000 -8.209770 137.203000 -39.081100 -0.002282 -0.040193 0.062709 -0.106477 29.157700 -40.985400 0.000008 0.000006 -7.051680 -12.135900 -74.519600 -11.754300 -0.000006 -0.000006 -0.000958 0.182473 -9.171360
0.000000 0.000000 0.000000 0.000000 0.000000 -0.000000 -0.655548 87.935200 -417.407000 84.948600 -4.730830 -18.815300 15.735700 0.000005 -0.000001 64.103700 84.642600 -60.811100 8.984550 -0.406207 -0.000000 2.027590 -4.841290 6.667950 16.377300 -0.000001 -0.000001 -6.402010 7.021960 -3.193230 6.456720 -0.000001 -0.000000 -2.565250 10.813900 -4.730240 12.994200 -0.242716 4.980390 -92.510100 8.863810 -74.118700 5.348090 -0.000007 -0.000001 -75.599800 -13.331800 -2.688710 24.328600 0.000019 0.000005 55.976400 25.290400 -73.911400 22.291600 -0.000001 0.000005 49.370400 4.202380 21.271200 12.994500 -0.242716 -4.980390 89.123600 2.950400 -73.446600 -5.348130 -0.000001 -0.000004 -64.461900 -11.145800 12.314900 -24.328900 0.000322 -0.000009 0.221549 0.616231 -19.866700 -22.291500 -0.000108 -0.000004 54.476100 5.302120 0.010131 -2.192480 -6.469440 -0.000000 -179.611000 -4.883560 -8.298840 39.081100 -0.000007 -0.000012 -0.008943 0.007478 50.112600 40.985400 -0.000006 -0.000013 -2.766860 5.976690 -34.762000 11.754300 -0.000000 0.000003 0.001736 0.037735 -15.046100 -2.192510 6.469440 -0.000001 -170.716000 -4.419160 136.846000 -39.081100 -0.002282 -0.040193 0.219660 -0.236758 42.426400 -40.985400 0.000008 0.000006 -1.511910 -9.305750 -75.356300 -11.754300 -0.000006 -0.000006 -0.003754 0.216528 -7.786140
0.000000 0.000000 0.000000 0.000000 0.000000 -0.000000 -1.071430 85.147800 -410.354000 84.073800 -3.553010 -16.085600 15.735700 0.000005 -0.000001 75.478100 83.890500 -71.861100 8.984550 -0.406207 -0.000000 4.178250 -3.172150 7.343350 16.377300 -0.000001 -0.000001 -6.870230 5.873820 -2.858670 6.456720 -0.000001 -0.000000 -2.741930 8.836480 -5.089520 12.994200 -0.242716 4.980390 -92.929100 10.349700 -74.102600 5.348090 -0.000007 -0.000001 -74.732600 -15.109400 -1.482150 24.328600 0.000019 0.000005 46.778700 31.392900 -63.912500 22.291600 -0.000001 0.000005 49.022100 4.231950 20.828300 12.994500 -0.242716 -4.980390 88.681600 4.514050 -73.699900 -5.348130 -0.000001 -0.000004 -66.389900 -7.563590 5.255540 -24.328900 0.000322 -0.000009 -0.566498 -1.408350 -21.848100 -22.291500 -0.000108 -0.000004 55.889600 5.317590 -0.427098 -2.192480 -6.469440 -0.000000 -177.373000 -4.810850 -14.780600 39.081100 -0.000007 -0.000012 0.078699 -0.031071 68.451400 40.985400 -0.000006 -0.000013 -4.123990 0.335221 -39.283800 11.754300 -0.000000 0.000003 0.001826 0.040579 -14.930700 -2.192510 6.469440 -0.000001 -169.165000 -1.187290 139.474000 -39.081100 -0.002282 -0.040193 -0.025619 0.022094 52.560400 -40.985400 0.000008 0.000006 -4.294730 -6.451890 -83.152100 -11.754300 -0.000006 -0.000006 -0.005931 0.237879 -6.916100
0.000000 0.000000 0.000000 0.000000 0.000000 -0.000000 -1.412530 83.115300 -403.730000 83.575800 -3.429700 -14.730200 15.735700 0.000005 -0.000001 84.665900 83.497700 -80.942300 8.984550 -0.406207 -0.000000 5.236060 -1.288180 7.497880 16.377300 -0.000001 -0.000001 -7.154240 5.287730 -2.750170 6.456720 -0.000001 -0.000000 -2.717660 6.981640 -5.346710 12.994200 -0.242716 4.980390 -93.188600 10.760300 -73.385700 5.348090 -0.000007 -0.000001 -72.438300 -19.186800 2.295040 24.328600 0.000019 0.000005 40.980700 34.160300 -57.121700 22.291600 -0.000001 0.000005 49.011800 4.302510 19.753100 12.994500 -0.242716 -4.980390 88.435700 5.441630 -73.934800 -5.348130 -0.000001 -0.000004 -67.535100 -3.872270 -1.911000 -24.328900 0.000322 -0.000009 -0.722601 -1.381570 -27.660100 -22.291500 -0.000108 -0.000004 54.844300 5.333220 -0.880391 -2.192480 -6.469440 -0.000000 -176.173000 -5.194970 -23.904400 39.081100 -0.000007 -0.000012 0.081046 -0.009270 83.469100 40.985400 -0.000006 -0.000013 -2.669060 -2.212680 -42.650800 11.754300 -0.000000 0.000003 0.001987 0.046203 -14.702600 -2.192510 6.469440 -0.000001 -168.631000 0.271622 143.575000 -39.081100 -0.002282 -0.040193 -0.012188 0.009782 57.581600 -40.985400 0.000008 0.000006 -4.780330 -4.526000 -89.476200 -11.754300 -0.000006 -0.000006 -0.003184 0.210332 -8.038380
0.000000 0.000000 0.000000 0.000000 0.000000 -0.000000 -1.575220 82.525400 -397.243000 84.168000 -3.440510 -14.369100 15.735700 0.000005 -0.000001 93.801200 83.411200 -90.392100 8.984550 -0.406207 -0.000000 5.368200 0.800593 6.772940 16.377300 -0.000001 -0.000001 -7.334150 4.358720 -2.235890 6.456720 -0.000001 -0.000000 -2.623640 5.042040 -5.631030 12.994200 -0.242716 4.980390 -93.197900 10.383400 -72.776500 5.348090 -0.000007 -0.000001 -68.654000 -24.917400 7.037560 24.328600 0.000019 0.000005 38.369000 34.268600 -54.579700 22.291600 -0.000001 0.000005 49.632700 4.294330 19.879100 12.994500 -0.242716 -4.980390 88.491500 5.428920 -74.446100 -5.348130 -0.000001 -0.000004 -68.791300 -2.798620 -6.151820 -24.328900 0.000322 -0.000009 3.380150 4.080880 -39.627800 -22.291500 -0.000108 -0.000004 55.848100 5.312560 -0.283413 -2.192480 -6.469440 -0.000000 -176.400000 -4.546790 -33.854800 39.081100 -0.000007 -0.000012 0.055229 0.002435 92.514600 40.985400 -0.000006 -0.000013 -2.282120 -2.365550 -48.363900 11.754300 -0.000000 0.000003 0.001806 0.039933 -14.956900 -2.192510 6.469440 -0.000001 -169.756000 2.355480 149.204000 -39.081100 -0.002282 -0.040193 0.004176 -0.000619 57.216500 -40.985400 0.000008 0.000006 -5.042860 -1.583310 -92.641900 -11.754300 -0.000006 -0.000006 -0.000333 0.173094 -9.552400
0.000000 0.000000 0.000000 0.000000 0.000000 -0.000000 -1.488930 83.557400 -390.469000 86.100800 -2.480230 -14.925100 15.735700 0.000005 -0.000001 100.832000 83.581500 -98.218800 8.984550 -0.406207 -0.000000 4.797490 2.340240 5.122300 16.377300 -0.000001 -0.000001 -7.409540 2.986180 -1.538670 6.456720 -0.000001 -0.000000 -2.912410 2.947700 -4.878580 12.994200 -0.242716 4.980390 -93.126400 9.954090 -72.464500 5.348090 -0.000007 -0.000001 -63.035000 -29.299000 11.769600 24.328600 0.000019 0.000005 37.598200 32.503000 -55.092700 22.291600 -0.000001 0.000005 50.791900 4.195220 21.381900 12.994500 -0.242716 -4.980390 88.549300 5.290550 -74.642100 -5.348130 -0.000001 -0.000004 -69.107100 -2.062430 -8.223870 -24.328900 0.000322 -0.000009 8.605150 6.288890 -54.078100 -22.291500 -0.000108 -0.000004 56.753400 5.269890 0.901176 -2.192480 -6.469440 -0.000000 -178.230000 -1.814350 -42.837600 39.081100 -0.000007 -0.000012 -0.034033 -0.002413 94.071200 40.985400 -0.000006 -0.000013 -1.850780 -4.345050 -56.009000 11.754300 -0.000000 0.000003 0.001869 0.042014 -14.872500 -2.192510 6.469440 -0.000001 -172.539000 5.674660 156.063000 -39.081100 -0.002282 -0.040193 0.019652 -0.012969 51.680800 -40.985400 0.000008 0.000006 -5.688830 1.631620 -91.449700 -11.754300 -0.000006 -0.000006 0.002222 0.111279 -12.060700
